<svg width="25" height="24" viewBox="0 0 25 24" fill="none" xmlns="http://www.w3.org/2000/svg">
<mask id="mask0_141_4628" style="mask-type:luminance" maskUnits="userSpaceOnUse" x="0" y="0" width="25" height="24">
<path d="M25 0.75H0V23.25H25V0.75Z" fill="white"/>
</mask>
<g mask="url(#mask0_141_4628)">
<mask id="mask1_141_4628" style="mask-type:luminance" maskUnits="userSpaceOnUse" x="-1" y="0" width="26" height="23">
<path d="M-0.0524902 0.311849H24.9475V22.8118H-0.0524902V0.311849Z" fill="white"/>
</mask>
<g mask="url(#mask1_141_4628)">
<path d="M12.4475 6.81124V19.1969C12.4475 19.1969 9.96051 17.2804 2.44751 17.2804V5.41208C2.44751 5.41208 8.52268 5.15291 12.4475 6.81124Z" fill="#2F3338"/>
<path d="M12.4475 6.81124V19.1969C12.4475 19.1969 9.96051 17.2804 2.44751 17.2804V5.41208C2.44751 5.41208 8.52268 5.15291 12.4475 6.81124Z" stroke="#2F3338" stroke-width="1.24567" stroke-linecap="round" stroke-linejoin="round"/>
<path d="M12.4475 6.81124V19.1969C12.4475 19.1969 14.9345 17.2804 22.4475 17.2804V5.41208C22.4475 5.41208 16.3723 5.15291 12.4475 6.81124Z" fill="#2F3338"/>
<path d="M12.4475 6.81124V19.1969C12.4475 19.1969 14.9345 17.2804 22.4475 17.2804V5.41208C22.4475 5.41208 16.3723 5.15291 12.4475 6.81124Z" stroke="#2F3338" stroke-width="1.24567" stroke-linecap="round" stroke-linejoin="round"/>
<path d="M12.4475 4.07698V18.4226C12.4475 18.4226 10.1425 16.5021 3.17987 16.5021V2.45631C3.17987 2.45631 8.81004 2.15614 12.4475 4.07698Z" fill="#2F3338"/>
<path d="M12.4475 4.07698V18.4226C12.4475 18.4226 10.1425 16.5021 3.17987 16.5021V2.45631C3.17987 2.45631 8.81004 2.15614 12.4475 4.07698Z" stroke="white" stroke-width="1.2905" stroke-linecap="round" stroke-linejoin="round"/>
<path d="M12.4475 4.07698V18.4226C12.4475 18.4226 14.7525 16.5021 21.7152 16.5021V2.45631C21.7152 2.45631 16.085 2.15614 12.4475 4.07698Z" fill="#2F3338"/>
<path d="M12.4475 4.07698V18.4226C12.4475 18.4226 14.7525 16.5021 21.7152 16.5021V2.45631C21.7152 2.45631 16.085 2.15614 12.4475 4.07698Z" stroke="white" stroke-width="1.2905" stroke-linecap="round" stroke-linejoin="round"/>
<path d="M12.4475 4.07698V18.4226C12.4475 18.4226 10.2963 16.5021 3.79816 16.5021V2.45631C3.79816 2.45631 9.0527 2.15614 12.4475 4.07698Z" fill="#2F3338"/>
<path d="M12.4475 4.07698V18.4226C12.4475 18.4226 10.2963 16.5021 3.79816 16.5021V2.45631C3.79816 2.45631 9.0527 2.15614 12.4475 4.07698Z" stroke="white" stroke-width="1.2905" stroke-linecap="round" stroke-linejoin="round"/>
</g>
</g>
</svg>
