<svg width="462" height="355" viewBox="0 0 462 355" fill="none" xmlns="http://www.w3.org/2000/svg">
<g clip-path="url(#clip0_78_1031)">
<rect width="462" height="355" fill="white"/>
<mask id="mask0_78_1031" style="mask-type:luminance" maskUnits="userSpaceOnUse" x="0" y="0" width="462" height="355">
<path d="M462 0H0V355H462V0Z" fill="white"/>
</mask>
<g mask="url(#mask0_78_1031)">
<path d="M346.085 270.517L314.225 230.959L313.579 278.296L313.907 307.406H220.033L222.945 247.093L216.013 188.694C215.161 181.544 219.24 174.708 225.932 172.075L252.419 161.633L288.768 167.214L305.99 173.563C312.294 175.956 318.229 181.781 322.666 186.852L366.253 237.309" fill="#2F3338"/>
<path d="M310.948 287.571L252.792 264.131C248.101 262.246 244.889 257.848 244.5 252.807L241.743 200.606C241.743 200.606 240.501 173.366 225.682 172.215L214.631 175.91C203.741 181.699 203.522 197.131 204.281 209.463C205.499 229.25 208.143 253.151 210.504 268.259C212.431 280.63 219.762 289.756 231.847 292.942L304.532 305.907L321.448 291.336L310.948 287.571Z" fill="#2F3338"/>
<path d="M294.248 280.914C283.899 276.577 275.45 272.551 270.358 269.955C264.025 266.666 258.545 263.92 254.287 258.176C246.265 247.346 250.105 240.9 242.831 226.341C243.369 233.521 243.665 238.378 244.202 245.558C244.695 252.14 244.083 256.726 248.325 261.198C251.896 264.968 258.857 267.855 263.787 269.485C273.691 272.761 284.359 277.608 294.248 280.884" fill="black"/>
<path d="M254.717 100.887L252.959 161.345C252.289 171.695 258.354 178.564 269.361 180.314C278.888 181.817 286.26 173.725 286.875 164.083C287.177 159.502 287.605 153.425 287.662 152.956C287.662 152.956 298.286 154.135 302.856 138.795C304.974 131.667 307.057 116.796 307.683 102.909C308.355 87.9845 297.458 75.0408 282.645 73.1589L281.179 72.9789C265.181 71.8865 255.341 84.8863 254.689 100.919L254.717 100.887Z" fill="#FFBE9D"/>
<path d="M254.532 112.358C254.282 112.211 244.082 107.72 243.094 118.213C242.106 128.707 253.862 129.491 253.916 129.187C253.968 128.883 254.532 112.358 254.532 112.358Z" fill="#FFBE9D"/>
<path d="M250.405 123.15C250.405 123.15 250.203 123.256 249.882 123.369C249.576 123.481 249.039 123.518 248.512 123.27C247.442 122.762 246.802 121.016 246.921 119.117C246.986 118.153 247.147 117.16 247.56 116.44C247.957 115.707 248.492 115.22 249.071 115.164C249.636 115.094 250.005 115.456 250.103 115.764C250.215 116.071 250.139 116.271 250.186 116.297C250.218 116.325 250.43 116.146 250.383 115.699C250.368 115.489 250.259 115.227 250.033 115.004C249.808 114.78 249.439 114.641 249.049 114.639C248.238 114.622 247.433 115.295 246.996 116.09C246.498 116.876 246.165 117.875 246.092 118.96C245.96 121.084 246.857 123.164 248.321 123.734C249.043 123.997 249.675 123.833 250.019 123.613C250.362 123.379 250.451 123.162 250.404 123.135L250.405 123.15Z" fill="#EB996E"/>
<path d="M287.522 153.079C287.522 153.079 277.808 154.547 268.375 146.809C268.375 146.809 271.896 156.587 287.303 157.137L287.56 154.991L287.522 153.079Z" fill="#EB996E"/>
<path d="M62.958 78.2928C62.958 78.2928 55.9448 53.0512 68.7778 39.6482C69.2258 39.1842 70.1621 39.4226 70.2811 40.0656C70.9681 43.8506 71.533 57.6948 62.958 78.2928Z" fill="#222932"/>
<path d="M71.354 132.294C71.354 132.294 74.1422 112.451 90.9734 104.938C92.0724 104.368 92.8725 105.182 92.6785 105.81C91.5135 109.475 88.564 118.098 71.354 132.294Z" fill="#222932"/>
<path d="M66.602 191.457C66.602 191.457 62.7944 169.91 77.9424 159.214C78.4804 158.84 79.2699 159.329 79.2549 159.972C79.2099 163.817 78.942 172.863 66.602 191.457Z" fill="#222932"/>
<path d="M79.853 250.962C79.853 250.962 77.4804 229.047 93.0024 218.89C93.5404 218.531 94.2724 218.907 94.2424 219.55C94.0634 223.395 92.865 232.817 79.853 250.962Z" fill="#222932"/>
<path d="M52.679 58.1881C52.679 58.1881 32.2775 47.0777 32.4687 30.5072C32.4687 29.8492 33.1707 29.4168 33.7087 29.7908C36.8607 31.9748 44.179 37.5451 52.679 58.1881Z" fill="#222932"/>
<path d="M75.476 107.342C75.476 107.342 54.5046 97.0645 53.4168 80.807C53.3568 80.164 54.0299 79.686 54.5829 80.015C57.8689 82.005 65.736 87.2671 75.476 107.342Z" fill="#222932"/>
<path d="M62.898 162.182C62.898 162.182 49.2003 144.706 55.0923 128.853C55.3463 128.255 56.2672 128.108 56.6112 128.662C58.6282 131.923 63.345 139.864 62.882 162.182H62.898Z" fill="#7F7F7F"/>
<path d="M77.777 226.729C77.777 226.729 57.9088 218.839 56.6838 200.321C56.6388 199.677 57.111 199.143 57.664 199.502C60.906 201.551 68.366 206.504 77.777 226.743V226.729Z" fill="#7F7F7F"/>
<path d="M108.073 186.968C108.073 186.968 116.858 162.057 105.296 147.547C104.892 147.038 103.913 147.476 103.733 148.104C102.703 151.814 101.395 165.666 108.073 186.968Z" fill="#7F7F7F"/>
<path d="M79.614 240.343C79.614 240.343 87.5533 219.325 74.8553 205.802C74.4073 205.323 73.5868 205.75 73.4668 206.378C72.7498 210.147 71.233 219.64 79.614 240.343Z" fill="#7F7F7F"/>
<path d="M119.769 159.894C119.769 159.894 138.365 148.027 136.378 129.583C136.303 128.939 135.6 128.682 135.121 129.116C132.268 131.689 125.55 138.338 119.769 159.894Z" fill="#7F7F7F"/>
<path d="M87.516 217.724C87.516 217.724 109.025 215.808 115.374 198.366C115.598 197.753 114.868 197.061 113.93 197.377C110.279 198.558 102.186 200.911 87.516 217.724Z" fill="#7F7F7F"/>
<path d="M74.475 268.719C74.475 268.719 74.55 268.494 74.744 268.09C74.953 267.642 75.237 267.043 75.595 266.28C76.313 264.68 77.254 262.271 78.075 259.04C79.718 252.608 80.301 242.78 77.866 231.097C76.731 225.248 74.908 218.981 72.697 212.339C70.501 205.682 67.962 198.607 65.885 190.978C63.824 183.364 62.21 175.092 62.524 166.416C62.838 157.725 65.407 149.048 68.231 140.417C71.054 131.771 73.967 123.319 74.834 114.823C75.82 106.341 74.012 98.0086 70.143 91.1726C66.408 84.2766 61.702 78.3676 58.177 72.2646C54.606 66.1766 52.366 59.9086 50.991 54.0896C48.317 42.3476 49.258 32.4446 50.528 25.9226C51.917 19.3706 53.456 15.9746 53.456 15.9746C53.456 15.9746 53.411 16.1996 53.277 16.6336C53.127 17.0966 52.933 17.7406 52.679 18.5326C52.156 20.2086 51.484 22.7066 50.857 25.9826C49.692 32.4896 48.855 42.3176 51.589 53.9406C52.993 59.6996 55.234 65.8776 58.804 71.8906C62.315 77.9336 67.035 83.7976 70.86 90.7836C74.804 97.6796 76.701 106.281 75.7 114.913C74.819 123.559 71.891 132.07 69.067 140.701C66.244 149.333 63.704 157.904 63.39 166.446C63.077 174.987 64.645 183.169 66.677 190.754C68.724 198.353 71.233 205.428 73.399 212.1C75.595 218.771 77.388 225.084 78.494 230.978C80.869 242.735 80.182 252.668 78.419 259.115C77.523 262.346 76.537 264.754 75.76 266.34C75.371 267.088 75.058 267.671 74.834 268.12C74.624 268.524 74.505 268.719 74.49 268.704L74.475 268.719Z" fill="#263238"/>
<path d="M67.2451 49.631C67.3641 49.661 67.1541 51.261 66.7661 53.849C66.3031 56.751 65.7511 60.177 65.1391 63.946C64.5411 67.716 64.0031 71.142 63.5401 74.044C63.1521 76.632 62.9131 78.232 62.7781 78.217C62.6591 78.217 62.6741 76.587 62.9131 73.969C63.1521 71.351 63.6151 67.761 64.2571 63.812C64.9001 59.863 65.5871 56.303 66.1541 53.745C66.7071 51.187 67.1401 49.616 67.2601 49.631H67.2451Z" fill="#263238"/>
<path d="M76.268 164.128C76.388 164.172 75.88 165.713 74.998 168.181C73.982 170.949 72.787 174.195 71.473 177.785C70.173 181.375 68.978 184.621 67.977 187.388C67.096 189.857 66.558 191.382 66.438 191.352C66.334 191.323 66.647 189.722 67.379 187.194C68.111 184.666 69.247 181.225 70.636 177.471C72.025 173.716 73.37 170.35 74.416 167.942C75.446 165.534 76.163 164.068 76.283 164.128H76.268Z" fill="#263238"/>
<path d="M90.4899 224.008C90.6099 224.053 90.0419 225.578 89.0709 228.017C87.9499 230.739 86.6499 233.94 85.2009 237.485C83.7669 241.031 82.4669 244.232 81.3609 246.954C80.3899 249.378 79.8079 250.889 79.6879 250.859C79.5839 250.829 79.9569 249.243 80.7789 246.745C81.5999 244.247 82.8559 240.851 84.3799 237.141C85.9039 233.447 87.3679 230.126 88.4879 227.762C89.6089 225.399 90.3699 223.963 90.4899 224.008Z" fill="#263238"/>
<path d="M35.441 34.8976C35.546 34.8226 36.532 36.1106 38.085 38.2196C39.803 40.6126 41.835 43.4096 44.076 46.5066C46.316 49.6026 48.348 52.3846 50.081 54.7776C51.635 56.8866 52.606 58.1746 52.501 58.2646C52.411 58.3386 51.275 57.1876 49.587 55.1676C47.899 53.1486 45.689 50.2906 43.359 47.0296C41.028 43.7836 38.996 40.7776 37.577 38.5786C36.158 36.3796 35.351 34.9576 35.456 34.8976H35.441Z" fill="#263238"/>
<path d="M56.863 85.1585C56.968 85.0835 58.027 86.3105 59.7 88.3145C61.568 90.5885 63.765 93.2665 66.185 96.2285C68.62 99.1755 70.815 101.838 72.682 104.112C74.355 106.116 75.401 107.358 75.311 107.448C75.222 107.523 74.013 106.446 72.22 104.531C70.412 102.616 68.036 99.8935 65.497 96.7965C62.972 93.7005 60.761 90.8295 59.207 88.7045C57.654 86.5955 56.773 85.2335 56.863 85.1585Z" fill="#263238"/>
<path d="M56.414 133.94C56.534 133.925 56.937 135.496 57.505 138.054C58.132 140.941 58.864 144.322 59.671 148.046C60.492 151.771 61.239 155.152 61.867 158.024C62.449 160.567 62.808 162.153 62.688 162.197C62.584 162.227 62.001 160.716 61.254 158.188C60.522 155.66 59.641 152.145 58.789 148.241C57.953 144.322 57.295 140.762 56.877 138.174C56.459 135.586 56.28 133.97 56.399 133.94H56.414Z" fill="#263238"/>
<path d="M59.521 204.213C59.626 204.138 60.671 205.381 62.314 207.415C64.137 209.719 66.288 212.44 68.663 215.432C71.039 218.424 73.19 221.117 75.028 223.421C76.671 225.455 77.687 226.711 77.597 226.801C77.507 226.875 76.312 225.769 74.549 223.839C72.787 221.894 70.441 219.127 67.961 215.985C65.482 212.844 63.33 209.942 61.822 207.788C60.313 205.649 59.431 204.274 59.536 204.199L59.521 204.213Z" fill="#263238"/>
<path d="M120.994 132.412C120.994 132.412 121.024 132.592 121.024 132.936C121.024 133.355 120.994 133.863 120.979 134.476C120.919 135.912 120.83 137.857 120.725 140.295C120.441 145.411 120.053 152.532 119.59 161.058V161.103C118.036 169.779 113.614 179.398 107.698 188.747C103.351 195.628 98.7951 201.881 94.8511 207.7C90.8921 213.504 87.5461 218.874 85.2301 223.631C82.8851 228.388 81.5261 232.471 80.7341 235.328C80.3451 236.764 80.0621 237.871 79.8971 238.649C79.7181 239.412 79.6131 239.816 79.5841 239.801C79.5541 239.801 79.5981 239.382 79.7181 238.604C79.8231 237.827 80.0621 236.69 80.3901 235.239C81.0921 232.337 82.3771 228.193 84.6631 223.361C86.9331 218.53 90.2501 213.085 94.1791 207.236C98.0781 201.372 102.619 195.119 106.951 188.268C112.852 178.979 117.244 169.495 118.843 160.953V160.998C119.44 152.472 119.933 145.351 120.292 140.251C120.486 137.827 120.65 135.883 120.755 134.447C120.815 133.833 120.86 133.34 120.904 132.921C120.949 132.577 120.979 132.397 120.994 132.397V132.412Z" fill="#263238"/>
<path d="M133.871 134.585C133.976 134.644 133.363 136.14 132.243 138.519C131.122 140.882 129.494 144.128 127.597 147.644C125.7 151.174 123.876 154.3 122.457 156.514C121.038 158.728 120.068 160.029 119.963 159.955C119.859 159.88 120.65 158.474 121.905 156.185C123.309 153.597 124.967 150.561 126.789 147.21C128.612 143.844 130.255 140.807 131.659 138.22C132.929 135.931 133.737 134.525 133.856 134.585H133.871Z" fill="#263238"/>
<path d="M111.314 201.209C111.389 201.314 110.179 202.376 108.117 204.021C106.071 205.652 103.187 207.851 99.9311 210.169C96.6741 212.503 93.6561 214.507 91.4161 215.869C89.1751 217.23 87.7261 217.963 87.6661 217.858C87.5911 217.738 88.9361 216.826 91.0721 215.33C93.4771 213.625 96.3011 211.635 99.4081 209.436C102.515 207.222 105.339 205.218 107.729 203.513C109.865 202.017 111.224 201.119 111.299 201.209H111.314Z" fill="#263238"/>
<path d="M88.533 108.959C88.623 109.034 87.697 110.365 86.128 112.459C84.35 114.808 82.274 117.576 79.973 120.628C77.687 123.679 75.611 126.447 73.848 128.81C72.295 130.919 71.338 132.221 71.234 132.146C71.129 132.086 71.906 130.65 73.34 128.451C74.774 126.252 76.866 123.29 79.271 120.104C81.691 116.918 83.962 114.091 85.65 112.086C87.338 110.082 88.443 108.899 88.548 108.974L88.533 108.959Z" fill="#263238"/>
<path d="M106.399 158.037C106.519 158.037 106.801 159.623 107.13 162.226C107.459 164.829 107.817 168.434 108.101 172.428C108.385 176.422 108.519 180.042 108.519 182.675C108.519 185.308 108.385 186.923 108.265 186.923C108.131 186.923 108.041 185.308 107.892 182.69C107.698 179.758 107.459 176.302 107.205 172.488C106.936 168.674 106.697 165.218 106.488 162.286C106.323 159.668 106.264 158.052 106.383 158.037H106.399Z" fill="#263238"/>
<path d="M75.5951 211.637C75.7151 211.607 76.1321 213.193 76.6551 215.75C77.1931 218.323 77.8511 221.884 78.4481 225.833C79.0611 229.782 79.4781 233.387 79.7021 236.005C79.9111 238.622 79.9121 240.253 79.7931 240.268C79.6581 240.268 79.4481 238.667 79.0751 236.079C78.6421 233.162 78.1341 229.752 77.5661 225.967C76.9981 222.183 76.4751 218.772 76.0271 215.855C75.6541 213.267 75.4601 211.652 75.5791 211.622L75.5951 211.637Z" fill="#263238"/>
<path d="M301.756 112.831C301.638 113.669 300.548 114.318 299.348 114.282C298.147 114.242 297.27 113.546 297.386 112.708C297.519 111.869 298.594 111.222 299.794 111.258C300.996 111.297 301.873 111.995 301.756 112.831Z" fill="#263238"/>
<path d="M303.226 109.682C302.916 109.93 301.415 108.512 299.072 108.223C296.725 107.905 294.868 108.901 294.649 108.586C294.534 108.445 294.873 107.97 295.691 107.503C296.497 107.052 297.815 106.668 299.284 106.857C300.751 107.047 301.911 107.74 302.543 108.367C303.19 109.008 303.381 109.55 303.225 109.667L303.226 109.682Z" fill="#263238"/>
<path d="M278.658 110.885C278.522 111.666 277.443 112.275 276.243 112.248C275.043 112.218 274.17 111.573 274.292 110.793C274.428 110.012 275.506 109.404 276.705 109.431C277.907 109.46 278.779 110.105 278.658 110.885Z" fill="#263238"/>
<path d="M280.109 107.28C279.799 107.528 278.299 106.111 275.955 105.823C273.609 105.504 271.751 106.499 271.533 106.186C271.417 106.044 271.756 105.568 272.575 105.101C273.38 104.651 274.699 104.267 276.167 104.456C277.635 104.646 278.795 105.338 279.427 105.966C280.074 106.608 280.265 107.148 280.108 107.265L280.109 107.28Z" fill="#263238"/>
<path d="M286.486 125.761C286.488 125.625 287.728 125.578 289.72 125.593C290.219 125.615 290.713 125.563 290.833 125.179C290.988 124.763 290.826 124.086 290.658 123.347C290.319 121.828 289.963 120.218 289.589 118.552C288.117 111.732 287.113 106.153 287.345 106.091C287.577 106.028 288.988 111.495 290.417 118.324C290.767 120.008 291.099 121.604 291.426 123.14C291.555 123.85 291.816 124.671 291.47 125.536C291.29 125.955 290.899 126.224 290.568 126.278C290.237 126.348 289.961 126.308 289.709 126.283C287.717 126.088 286.483 125.895 286.498 125.76L286.486 125.761Z" fill="#263238"/>
<path d="M280.384 128.678C280.777 128.648 280.854 131.211 283.105 132.958C285.358 134.718 288.079 134.343 288.114 134.688C288.151 134.847 287.516 135.212 286.366 135.281C285.234 135.362 283.565 135.047 282.192 133.97C280.82 132.893 280.185 131.428 280.077 130.378C279.948 129.302 280.211 128.657 280.384 128.678Z" fill="#263238"/>
<path d="M281.836 98.1505C281.521 98.7598 279.215 98.1681 276.429 98.1672C273.637 98.1074 271.31 98.6425 271.023 98.0193C270.896 97.729 271.349 97.1694 272.33 96.6604C273.296 96.1535 274.793 95.74 276.457 95.7652C278.137 95.7893 279.607 96.2332 280.562 96.7611C281.515 97.2901 281.963 97.8561 281.836 98.1505Z" fill="#263238"/>
<path d="M303.187 102.785C302.714 103.27 301.16 102.518 299.222 102.243C297.294 101.908 295.59 102.157 295.274 101.551C295.147 101.26 295.469 100.756 296.247 100.337C297.009 99.9198 298.248 99.6612 299.582 99.8607C300.915 100.061 302.012 100.699 302.613 101.328C303.23 101.957 303.394 102.544 303.171 102.772L303.187 102.785Z" fill="#263238"/>
<path d="M450.033 6.40723L446.525 48.5612H369.468L352.807 62.4072L360.721 47.1472L346.033 46.2852L352.807 8.50623L450.033 6.40723Z" fill="#E5F3FF"/>
<path d="M433.033 23.4072L438.229 32.4072H427.837L433.033 23.4072Z" fill="#2F3338"/>
<path d="M416.033 23.4072C418.794 23.4072 421.033 25.6462 421.033 28.4072C421.033 31.1682 418.794 33.4072 416.033 33.4072C413.272 33.4072 411.033 31.1682 411.033 28.4072C411.033 25.6462 413.272 23.4072 416.033 23.4072Z" fill="#08448E"/>
<path d="M394.033 23.4072H404.033V33.4072H394.033V23.4072Z" fill="#2F3338"/>
<path d="M382.033 23.4072L387.229 32.4072H376.837L382.033 23.4072Z" fill="#2F3338"/>
<path d="M364.033 23.4072C366.794 23.4072 369.033 25.6462 369.033 28.4072C369.033 31.1682 366.794 33.4072 364.033 33.4072C361.272 33.4072 359.033 31.1682 359.033 28.4072C359.033 25.6462 361.272 23.4072 364.033 23.4072Z" fill="#2F3338"/>
<path d="M311.667 225.82C311.667 225.67 313.788 225.986 317.105 225.432C320.391 224.923 324.932 223.308 328.697 219.837C332.462 216.352 334.419 211.953 335.195 208.722C336.002 205.461 335.868 203.323 336.017 203.323C336.062 203.323 336.137 203.846 336.152 204.803C336.166 205.76 336.077 207.151 335.733 208.842C335.076 212.193 333.134 216.786 329.22 220.406C325.306 224.011 320.57 225.581 317.179 225.97C315.476 226.179 314.087 226.164 313.131 226.059C312.175 225.97 311.667 225.851 311.667 225.806V225.82Z" fill="#1753A0"/>
<path d="M244.083 232.448C244.083 232.448 244.216 232.493 244.455 232.613C244.724 232.762 245.068 232.942 245.501 233.166C246.427 233.6 247.802 234.303 249.654 234.931C253.314 236.203 259.037 237.489 265.953 236.322C272.78 235.2 280.712 231.177 286.209 223.712C288.928 220.032 291.035 215.5 291.513 210.518C291.752 208.05 291.557 205.477 290.736 203.054C289.944 200.631 288.481 198.402 286.539 196.637C284.612 194.872 282.221 193.63 279.711 193.316C277.231 192.927 274.587 193.585 272.869 195.246C272.047 196.083 271.524 197.19 271.539 198.342C271.539 199.494 271.973 200.616 272.66 201.543C274.034 203.428 276.365 204.311 278.576 204.64C283.102 205.268 287.554 204.445 291.289 202.815C295.038 201.184 298.101 198.746 300.297 196.068C302.508 193.376 303.867 190.459 304.674 187.826C305.495 185.178 305.734 182.77 305.779 180.825C305.809 178.866 305.6 177.355 305.451 176.338C305.361 175.859 305.302 175.485 305.242 175.186C305.198 174.932 305.182 174.782 305.197 174.782C305.197 174.782 306.018 176.861 306.093 180.825C306.093 182.8 305.899 185.238 305.107 187.961C304.315 190.653 302.971 193.645 300.73 196.427C298.504 199.195 295.382 201.708 291.557 203.413C287.733 205.103 283.177 205.986 278.486 205.358C276.17 205.029 273.647 204.116 272.078 202.007C271.316 200.99 270.792 199.703 270.792 198.357C270.778 197.011 271.39 195.679 272.346 194.722C274.288 192.837 277.171 192.164 279.83 192.568C282.519 192.912 285.059 194.228 287.076 196.083C289.107 197.938 290.647 200.287 291.484 202.83C292.335 205.373 292.543 208.05 292.289 210.608C291.782 215.754 289.6 220.406 286.807 224.161C281.16 231.76 273.018 235.814 266.057 236.876C259.006 237.998 253.225 236.592 249.565 235.23C245.861 233.809 244.112 232.478 244.112 232.478L244.083 232.448Z" fill="#1753A0"/>
<path d="M205.989 217.563C205.989 217.563 206.273 217.1 206.945 216.367C207.618 215.649 208.648 214.661 210.083 213.629C212.906 211.505 217.582 209.575 222.945 209.067C225.634 208.783 228.233 208.902 230.519 209.381C232.819 209.86 234.791 210.637 236.36 211.43C237.929 212.223 239.123 213.016 239.914 213.599C240.706 214.183 241.111 214.542 241.081 214.587C241.006 214.706 239.257 213.39 236.12 211.939C233.013 210.458 228.262 209.216 223.019 209.845C217.76 210.338 213.22 212.133 210.381 214.093C207.498 216.008 206.079 217.683 205.974 217.563H205.989Z" fill="#1753A0"/>
<path d="M215.296 177.638C215.415 177.504 216.79 179.419 220.001 181.065C221.585 181.888 223.647 182.576 225.992 182.83C228.337 183.084 230.981 182.815 233.491 181.798C235.986 180.736 238.048 179.06 239.526 177.22C241.02 175.381 241.976 173.451 242.529 171.731C243.635 168.29 243.261 165.971 243.44 165.971C243.485 165.971 243.605 166.525 243.635 167.557C243.679 168.589 243.56 170.1 243.052 171.88C242.559 173.66 241.618 175.71 240.094 177.654C238.585 179.584 236.434 181.379 233.79 182.501C231.131 183.578 228.352 183.832 225.917 183.533C223.467 183.234 221.361 182.456 219.747 181.544C218.134 180.631 216.984 179.644 216.282 178.896C215.58 178.133 215.266 177.653 215.296 177.638Z" fill="#EBF0F6"/>
<path d="M265.969 269.44C265.969 269.44 265.983 269.066 266.088 268.333C266.252 267.63 266.476 266.569 267.119 265.328C268.299 262.815 271.212 259.673 275.828 257.759C280.37 255.709 286.629 255.32 292.918 257.145C295.996 258.058 299.521 259.195 301.822 262.201C302.957 263.682 303.331 265.881 302.479 267.676C301.657 269.486 300.044 270.727 298.341 271.594C296.608 272.447 294.726 272.927 292.829 272.957C290.961 272.987 289.004 272.523 287.54 271.311C286.061 270.115 285.284 268.275 285.18 266.51C285.045 264.729 285.404 263.024 285.972 261.468C288.451 255.246 293.456 251.282 297.953 249.322C302.524 247.317 306.662 247.107 309.396 247.346C312.144 247.631 313.579 248.229 313.579 248.229C313.549 248.334 312.1 247.84 309.381 247.646C306.677 247.496 302.628 247.795 298.192 249.815C295.981 250.817 293.71 252.268 291.663 254.242C289.632 256.217 287.794 258.731 286.659 261.693C286.121 263.174 285.807 264.804 285.927 266.435C286.046 268.05 286.734 269.651 288.033 270.698C289.318 271.76 291.081 272.194 292.829 272.149C294.591 272.119 296.369 271.655 297.997 270.863C299.596 270.055 301.075 268.888 301.777 267.332C302.509 265.792 302.21 263.952 301.209 262.62C300.223 261.259 298.789 260.287 297.325 259.524C295.846 258.776 294.263 258.266 292.724 257.803C286.554 255.978 280.489 256.308 276.037 258.237C271.511 260.047 268.613 263.024 267.388 265.432C266.118 267.856 266.073 269.441 265.969 269.412V269.44Z" fill="#EBF0F6"/>
<path d="M227.247 290.458C227.217 290.308 229.457 290.129 232.818 288.917C236.165 287.75 240.601 285.342 244.247 281.318C247.892 277.279 249.82 272.612 250.656 269.156C251.508 265.686 251.477 263.442 251.626 263.442C251.671 263.442 251.731 263.996 251.716 265.013C251.701 266.03 251.567 267.496 251.208 269.276C250.506 272.821 248.594 277.668 244.844 281.826C241.094 285.985 236.463 288.378 233.013 289.426C231.28 289.964 229.832 290.248 228.831 290.368C227.83 290.488 227.261 290.488 227.261 290.443L227.247 290.458Z" fill="#EBF0F6"/>
<path d="M-309 -362.5H771V717.5H-309V-362.5ZM-309 717.5H771V-362.5H-309V717.5ZM208.395 247.062C208.631 246.973 208.856 246.853 209.097 246.777C209.783 246.559 210.46 246.278 211.173 246.178C213.8 245.808 216.44 245.268 219.091 245.372C220.936 245.445 222.822 245.866 224.469 246.702C226.367 247.666 228.328 248.866 229.488 250.651C230.771 252.627 231.263 255.093 231.445 257.442C231.543 258.709 231.008 260.025 230.295 261.077C229.551 262.175 228.532 263.307 227.247 263.635C225.954 263.965 224.344 263.713 223.319 262.858C222.326 262.029 221.957 260.516 221.959 259.223C221.962 256.869 222.039 254.263 223.333 252.297C225.477 249.037 228.385 246.087 231.819 244.234C234.148 242.977 237.075 243.52 239.721 243.457C240.446 243.44 241.134 243.787 241.828 243.995C242.067 244.067 242.763 244.322 242.515 244.294C241.558 244.187 240.639 243.713 239.677 243.755C237.103 243.868 234.257 243.492 232.013 244.757C228.756 246.593 226.015 249.452 223.991 252.596C222.779 254.479 222.756 256.954 222.721 259.193C222.704 260.295 223.007 261.583 223.841 262.304C224.653 263.007 225.973 263.19 227.008 262.902C228.112 262.594 229.003 261.642 229.638 260.688C230.278 259.726 230.771 258.536 230.683 257.384C230.517 255.204 230.087 252.91 228.906 251.07C227.818 249.376 225.984 248.218 224.2 247.286C222.62 246.46 220.81 246.023 219.031 245.91C216.425 245.745 213.814 246.186 211.218 246.463C210.258 246.566 209.325 246.846 208.38 247.046C208.373 247.047 208.388 247.064 208.395 247.062Z" fill="#1753A0"/>
<path d="M314.475 276.427C314.699 276.427 314.759 261.229 314.61 242.5C314.46 223.757 314.147 208.573 313.922 208.573C313.698 208.573 313.639 223.757 313.788 242.5C313.937 261.229 314.251 276.411 314.475 276.411V276.427Z" fill="#263238"/>
<path d="M241.096 205.491C241.096 205.491 241.185 205.925 241.275 206.763C241.365 207.675 241.498 208.902 241.647 210.443C241.946 213.719 242.366 218.326 242.873 223.98C243.366 229.724 243.949 236.516 244.591 244.07C244.756 245.955 244.92 247.899 245.084 249.874C245.264 251.848 245.383 253.883 245.831 255.842C246.265 257.817 247.206 259.672 248.715 261.078C250.223 262.484 252.106 263.531 254.078 264.414C270.107 271.355 284.896 277.099 295.622 281.123C300.941 283.082 305.273 284.683 308.365 285.82C309.814 286.358 310.965 286.777 311.831 287.091C312.623 287.39 313.026 287.555 313.026 287.585C313.026 287.615 312.593 287.495 311.786 287.241C310.92 286.957 309.755 286.583 308.276 286.104C305.228 285.087 300.851 283.576 295.443 281.631C284.657 277.742 269.853 272.088 253.764 265.117C251.762 264.204 249.805 263.142 248.192 261.631C246.563 260.136 245.518 258.071 245.084 256.007C244.621 253.943 244.517 251.893 244.337 249.919C244.173 247.944 244.024 246 243.874 244.115C243.292 236.561 242.769 229.754 242.321 224.01C241.902 218.341 241.574 213.734 241.335 210.458C241.245 208.917 241.17 207.675 241.111 206.763C241.066 205.925 241.051 205.476 241.081 205.476L241.096 205.491Z" fill="#263238"/>
<path d="M207.782 235.845C207.782 235.845 207.841 236.099 207.901 236.592L208.095 238.746C208.275 240.735 208.499 243.414 208.783 246.675C209.096 250.01 209.5 253.989 210.082 258.387C210.68 262.77 211.382 267.616 212.711 272.522C213.339 275.006 214.22 277.295 215.55 279.27C216.879 281.259 218.358 283.039 219.897 284.61C222.974 287.751 226.261 290.069 229.204 291.595C235.15 294.691 239.482 294.737 239.422 294.947C239.422 294.976 239.153 294.962 238.66 294.932C238.167 294.902 237.435 294.842 236.509 294.647C234.657 294.318 231.983 293.585 228.95 292.089C225.917 290.594 222.541 288.29 219.389 285.119C217.821 283.518 216.297 281.723 214.922 279.704C213.533 277.669 212.592 275.231 211.965 272.748C210.62 267.752 209.933 262.904 209.38 258.491C208.842 254.078 208.484 250.085 208.245 246.734C208.006 243.384 207.871 240.661 207.797 238.791C207.782 237.924 207.767 237.205 207.752 236.621C207.752 236.128 207.752 235.859 207.797 235.859L207.782 235.845Z" fill="#263238"/>
<path d="M232.641 274.901C232.566 274.886 232.805 273.629 233.701 271.804C234.583 269.979 236.211 267.601 238.586 265.566C240.961 263.532 243.561 262.29 245.503 261.707C247.46 261.109 248.715 261.064 248.73 261.138C248.76 261.273 247.535 261.512 245.682 262.215C243.83 262.919 241.38 264.19 239.094 266.135C236.808 268.094 235.165 270.323 234.194 272.043C233.208 273.764 232.775 274.93 232.655 274.886L232.641 274.901Z" fill="#263238"/>
<path d="M263.675 74.9205C265.201 69.5831 270.639 67.2784 276.085 66.1147C281.505 64.9565 287.394 64.4943 291.76 67.9275C294.677 70.2255 298.183 71.9691 301.68 73.2321C307.428 75.3294 312.904 71.9956 318.397 74.682C321.648 76.2646 325.253 80.58 324.322 84.0869C323.391 87.5928 315.765 89.6434 312.166 89.4071C315.917 90.8473 319.804 97.1822 317.555 100.504C315.307 103.825 310.303 104.432 306.362 103.637C302.436 102.841 299.383 99.5335 296.449 96.8025C293.499 94.0718 290.344 90.8306 287.188 88.3402C284.032 85.8508 278.185 85.7346 274.181 85.8892C268.758 86.0928 263.757 91.1478 261.262 95.9733C258.768 100.799 259.259 107.421 258.88 112.851C258.499 118.281 259.798 122.518 258.11 127.687C257.916 128.288 257.608 128.97 257.008 129.15C256.129 129.413 255.382 128.466 254.96 127.643C250.165 118.406 245.675 107.481 244.78 97.108C244.261 91.086 245.111 85.1258 248.491 80.1275C251.87 75.1153 259.652 71.6718 263.705 74.9182" fill="#263238"/>
<path d="M426.73 233.89L395.631 308.25L267.689 307.965L265.462 301.035L310.314 300.251L333.088 234.192L426.73 233.89Z" fill="#EAEAEA"/>
<path d="M117.678 246.534H201.783V235.285H117.678V246.534Z" fill="#E0E0E0"/>
<path d="M129.152 235.734C129.451 235.734 129.675 238.098 129.675 241C129.675 243.902 129.436 246.266 129.152 246.266C128.868 246.266 128.629 243.902 128.629 241C128.629 238.098 128.868 235.734 129.152 235.734Z" fill="#FAFAFA"/>
<path d="M127.314 235.511C127.613 235.511 127.837 237.874 127.837 240.776C127.837 243.678 127.598 246.041 127.314 246.041C127.03 246.041 126.791 243.678 126.791 240.776C126.791 237.874 127.03 235.511 127.314 235.511Z" fill="#FAFAFA"/>
<path d="M195.285 235.734C195.584 235.734 195.808 238.098 195.808 241C195.808 243.902 195.569 246.266 195.285 246.266C195.002 246.266 194.762 243.902 194.762 241C194.762 238.098 195.002 235.734 195.285 235.734Z" fill="#FAFAFA"/>
<path d="M193.463 235.511C193.762 235.511 193.986 237.874 193.986 240.776C193.986 243.678 193.747 246.041 193.463 246.041C193.179 246.041 192.94 243.678 192.94 240.776C192.94 237.874 193.179 235.511 193.463 235.511Z" fill="#FAFAFA"/>
<path d="M182.468 241.239C182.468 241.538 172.832 241.762 160.956 241.762C149.08 241.762 139.444 241.523 139.444 241.239C139.444 240.955 149.08 240.716 160.956 240.716C172.832 240.716 182.468 240.955 182.468 241.239Z" fill="#FAFAFA"/>
<path d="M117.335 308.435H201.44V285.937H117.335V308.435Z" fill="#E0E0E0"/>
<path d="M202.501 302.108C202.501 302.108 202.352 302.212 202.038 302.377C201.724 302.541 201.261 302.751 200.634 303.02C199.379 303.529 197.496 304.262 194.927 304.651C192.402 305.01 189.026 305.114 185.68 303.334C184.037 302.452 182.468 301.12 181.288 299.34C180.123 297.575 179.376 295.257 179.764 292.863C179.958 291.666 180.466 290.485 181.303 289.512C182.124 288.54 183.439 287.822 184.843 287.897C186.247 287.957 187.517 288.764 188.414 289.827C189.31 290.889 189.907 292.235 190.042 293.671C190.371 296.528 189.175 299.49 187.144 301.644C185.142 303.888 182.154 305.249 179.062 305.593C175.955 305.967 172.728 305.473 169.68 304.426C166.633 303.379 163.615 301.659 161.479 298.907C160.433 297.545 159.686 295.84 159.567 294.045C159.417 292.25 159.985 290.32 161.359 288.989C162.047 288.316 163.003 287.882 163.989 287.837C164.975 287.792 165.946 288.106 166.737 288.615C168.366 289.617 169.396 291.352 169.83 293.162C170.621 296.842 169.172 300.672 166.513 303.08C163.854 305.503 160.373 306.58 157.042 306.939C153.696 307.268 150.335 307.029 147.227 305.967C144.135 304.935 141.356 302.9 139.758 300.148C138.129 297.456 137.592 294.06 138.817 291.203C139.399 289.797 140.699 288.54 142.253 288.301C143.761 288.017 145.315 288.435 146.495 289.318C148.871 291.203 149.259 294.434 148.497 296.902C147.72 299.43 146.017 301.375 144.254 302.886C140.654 305.922 136.397 307.239 132.722 307.373C129.002 307.508 125.865 306.476 123.579 305.294C121.278 304.097 119.755 302.736 118.814 301.764C118.35 301.27 118.007 300.881 117.813 300.597C117.604 300.313 117.499 300.178 117.514 300.163C117.618 300.013 119.202 302.616 123.773 304.935C126.044 306.042 129.106 306.969 132.707 306.79C136.262 306.61 140.355 305.279 143.776 302.332C145.45 300.866 147.033 298.996 147.72 296.693C148.407 294.464 147.959 291.577 145.972 290.051C145.001 289.318 143.657 288.974 142.432 289.213C141.177 289.423 140.191 290.365 139.683 291.607C138.622 294.105 139.086 297.201 140.594 299.669C142.088 302.197 144.628 304.052 147.556 305.025C150.484 306.012 153.726 306.251 156.937 305.922C160.119 305.578 163.391 304.531 165.811 302.317C168.201 300.163 169.516 296.648 168.799 293.417C168.411 291.846 167.514 290.365 166.17 289.542C164.855 288.675 163.137 288.705 162.061 289.797C160.971 290.844 160.448 292.474 160.597 294.015C160.687 295.586 161.344 297.067 162.286 298.323C164.213 300.836 167.081 302.497 169.979 303.514C172.922 304.531 175.999 305.01 178.927 304.666C181.841 304.337 184.574 303.11 186.442 301.046C188.339 299.056 189.429 296.349 189.146 293.806C188.936 291.322 187.054 288.914 184.783 288.764C183.663 288.69 182.587 289.243 181.87 290.081C181.123 290.919 180.66 291.981 180.481 293.043C180.108 295.212 180.765 297.351 181.841 299.026C182.931 300.702 184.41 302.003 185.949 302.856C189.086 304.591 192.387 304.576 194.867 304.277C197.392 303.948 199.289 303.304 200.544 302.856C201.814 302.392 202.456 302.108 202.486 302.153L202.501 302.108Z" fill="#FAFAFA"/>
<path d="M124.834 285.892H201.426V246.85H124.834V285.892Z" fill="#EBEBEB"/>
<path d="M137.562 248.196C137.86 248.196 138.085 256.663 138.085 267.089C138.085 277.515 137.846 285.982 137.562 285.982C137.278 285.982 137.039 277.53 137.039 267.089C137.039 256.648 137.278 248.196 137.562 248.196Z" fill="#E0E0E0"/>
<path d="M143.373 247.701C143.672 247.701 143.896 256.049 143.896 266.355C143.896 276.662 143.657 285.009 143.373 285.009C143.089 285.009 142.85 276.662 142.85 266.355C142.85 256.049 143.089 247.701 143.373 247.701Z" fill="#E0E0E0"/>
<path d="M192.776 246.446C193.074 246.446 193.297 255.242 193.297 266.087C193.297 276.932 193.059 285.728 192.776 285.728C192.492 285.728 192.253 276.932 192.253 266.087C192.253 255.242 192.492 246.446 192.776 246.446Z" fill="#E0E0E0"/>
<path d="M185.948 246.984C186.247 246.984 186.47 255.555 186.47 266.116C186.47 276.677 186.232 285.25 185.948 285.25C185.665 285.25 185.426 276.677 185.426 266.116C185.426 255.555 185.665 246.984 185.948 246.984Z" fill="#E0E0E0"/>
<path d="M460.033 307.831C460.033 307.521 364.32 307.255 246.282 307.255C128.244 307.255 32.5129 307.521 32.5129 307.831C32.5129 308.141 128.204 308.407 246.282 308.407C364.36 308.407 460.033 308.141 460.033 307.831Z" fill="#263238"/>
<path d="M97.2119 275.748C97.2119 276.003 89.4439 276.197 79.8679 276.197C70.2919 276.197 62.5239 276.003 62.5239 275.748C62.5239 275.494 70.2919 275.3 79.8679 275.3C89.4439 275.3 97.2119 275.494 97.2119 275.748Z" fill="#263238"/>
<path d="M98.064 279.459C98.064 279.714 90.042 279.907 80.152 279.907C70.263 279.907 62.241 279.714 62.241 279.459C62.241 279.205 70.263 279.011 80.152 279.011C90.042 279.011 98.064 279.205 98.064 279.459Z" fill="#263238"/>
<path d="M64.944 261.329L58.042 307.865H101.066L95.479 261.329H64.944Z" fill="#2C445A"/>
</g>
</g>
<defs>
<clipPath id="clip0_78_1031">
<rect width="462" height="355" fill="white"/>
</clipPath>
</defs>
</svg>
