<svg width="19" height="19" viewBox="0 0 19 19" fill="none" xmlns="http://www.w3.org/2000/svg">
<path fill-rule="evenodd" clip-rule="evenodd" d="M0.849609 9.89453C0.849609 6.29939 0.849609 4.50182 1.7063 3.20708C2.08886 2.62892 2.584 2.13378 3.16216 1.75122C4.4569 0.894531 6.25447 0.894531 9.84961 0.894531C13.4447 0.894531 15.2423 0.894531 16.5371 1.75122C17.1152 2.13378 17.6104 2.62892 17.9929 3.20708C18.8496 4.50182 18.8496 6.29939 18.8496 9.89453C18.8496 13.4897 18.8496 15.2872 17.9929 16.582C17.6104 17.1601 17.1152 17.6553 16.5371 18.0378C15.2423 18.8945 13.4447 18.8945 9.84961 18.8945C6.25447 18.8945 4.4569 18.8945 3.16216 18.0378C2.584 17.6553 2.08886 17.1601 1.7063 16.582C0.849609 15.2872 0.849609 13.4897 0.849609 9.89453ZM14.5089 9.89476C14.5089 12.4681 12.4228 14.5542 9.84945 14.5542C7.27613 14.5542 5.19004 12.4681 5.19004 9.89476C5.19004 7.32144 7.27613 5.23535 9.84945 5.23535C12.4228 5.23535 14.5089 7.32144 14.5089 9.89476ZM9.84945 12.9778C11.5521 12.9778 12.9325 11.5975 12.9325 9.89476C12.9325 8.19206 11.5521 6.81176 9.84945 6.81176C8.14675 6.81176 6.76645 8.19206 6.76645 9.89476C6.76645 11.5975 8.14675 12.9778 9.84945 12.9778ZM14.6929 6.09608C15.2975 6.09608 15.7877 5.60591 15.7877 5.00126C15.7877 4.3966 15.2975 3.90643 14.6929 3.90643C14.0882 3.90643 13.5981 4.3966 13.5981 5.00126C13.5981 5.60591 14.0882 6.09608 14.6929 6.09608Z" fill="black" fill-opacity="0.6"/>
</svg>
