<svg width="28" height="28" viewBox="0 0 28 28" fill="none" xmlns="http://www.w3.org/2000/svg">
<path d="M4.66659 7.00065H2.33325V23.334C2.33325 24.6173 3.38325 25.6673 4.66659 25.6673H20.9999V23.334H4.66659V7.00065ZM23.3333 2.33398H9.33325C8.04992 2.33398 6.99992 3.38398 6.99992 4.66732V18.6673C6.99992 19.9507 8.04992 21.0007 9.33325 21.0007H23.3333C24.6166 21.0007 25.6666 19.9507 25.6666 18.6673V4.66732C25.6666 3.38398 24.6166 2.33398 23.3333 2.33398ZM23.3333 18.6673H9.33325V4.66732H23.3333V18.6673ZM11.6666 10.5007H20.9999V12.834H11.6666V10.5007ZM11.6666 14.0007H16.3333V16.334H11.6666V14.0007ZM11.6666 7.00065H20.9999V9.33398H11.6666V7.00065Z" fill="black"/>
</svg>
