<svg width="18" height="20" viewBox="0 0 18 20" fill="none" xmlns="http://www.w3.org/2000/svg">
<path d="M8 0C6.625 0 5.5 1.125 5.5 2.5H3C1.625 2.5 0.5 3.625 0.5 5H18C18 3.625 16.875 2.5 15.5 2.5H13C13 1.125 11.875 0 10.5 0H8ZM3 7.5V19.525C3 19.8 3.2 20 3.475 20H15.05C15.325 20 15.525 19.8 15.525 19.525V7.5H13.025V16.25C13.025 16.95 12.475 17.5 11.775 17.5C11.075 17.5 10.525 16.95 10.525 16.25V7.5H8.025V16.25C8.025 16.95 7.475 17.5 6.775 17.5C6.075 17.5 5.525 16.95 5.525 16.25V7.5H3.025H3Z" fill="#BA7475"/>
</svg>
