<svg width="21" height="15" viewBox="0 0 21 15" fill="none" xmlns="http://www.w3.org/2000/svg">
<path d="M11.2882 14.8747L7.22605 14.7988C5.9108 14.7723 4.59228 14.8251 3.30282 14.551C1.34126 14.1415 1.20229 12.1336 1.05688 10.4494C0.856519 8.08155 0.934085 5.67074 1.31219 3.32266C1.52565 2.00514 2.36568 1.21897 3.66476 1.13342C8.05011 0.822948 12.4646 0.859743 16.8403 1.00459C17.3024 1.01787 17.7677 1.09044 18.2234 1.17306C20.4727 1.57597 20.5275 3.85137 20.6733 5.76683C20.8187 7.70205 20.7573 9.64721 20.4794 11.5693C20.2564 13.1607 19.8298 14.4952 18.0294 14.624C15.7737 14.7925 13.5697 14.9281 11.3076 14.8849C11.3077 14.8747 11.2947 14.8747 11.2882 14.8747ZM8.90006 10.8457C10.6 9.84831 12.2674 8.86752 13.9576 7.8768C12.2545 6.87939 10.5902 5.8986 8.90006 4.90788V10.8457Z" fill="black" fill-opacity="0.6"/>
</svg>
